<?xml version="1.0" encoding="UTF-8"?>
<!DOCTYPE svg PUBLIC "-//W3C//DTD SVG 1.1//EN" "http://www.w3.org/Graphics/SVG/1.1/DTD/svg11.dtd">
<!-- Creator: CorelDRAW 2020 (64 Bit) -->
<svg xmlns="http://www.w3.org/2000/svg" xml:space="preserve" width="400mm" height="100mm" version="1.1" style="shape-rendering:geometricPrecision; text-rendering:geometricPrecision; image-rendering:optimizeQuality; fill-rule:evenodd; clip-rule:evenodd"
viewBox="0 0 40000 10000"
 xmlns:xlink="http://www.w3.org/1999/xlink"
 xmlns:xodm="http://www.corel.com/coreldraw/odm/2003">
 <defs>
  <style type="text/css">
   <![CDATA[
    .str1 {stroke:white;stroke-width:20;stroke-miterlimit:22.9256}
    .str0 {stroke:#6699FF;stroke-width:1500;stroke-miterlimit:22.9256}
    .fil1 {fill:none}
    .fil2 {fill:white}
    .fil0 {fill:#6699FF;fill-rule:nonzero}
   ]]>
  </style>
 </defs>
 <g id="Camada_x0020_1">
  <metadata id="CorelCorpID_0Corel-Layer"/>
  <path class="fil0" d="M3664.99 1408.03l1471.08 0 0 5132.91c0,642.06 -194.03,1158.88 -582.08,1550.46 -388.06,391.58 -963.08,587.38 -1725.08,587.38 -684.39,0 -1217.09,-181.68 -1598.09,-545.04 -381,-363.37 -571.5,-908.41 -571.5,-1635.13l0 -719.67 1333.5 0 0 645.59c0,359.83 63.5,626.18 190.5,799.04 127,172.86 342.2,259.29 645.59,259.29 338.66,0 562.68,-82.9 672.04,-248.71 109.36,-165.8 164.04,-442.73 164.04,-830.79l0 -4995.33zm4593.16 6011.33c839.61,0 1259.42,-529.17 1259.42,-1587.5 0,-1051.28 -419.81,-1576.92 -1259.42,-1576.92 -839.61,0 -1259.41,525.64 -1259.41,1576.92 0,1058.33 419.8,1587.5 1259.41,1587.5zm0 1153.58c-423.33,0 -800.8,-67.02 -1132.41,-201.08 -331.61,-134.06 -612.07,-321.03 -841.38,-560.92 -229.3,-239.89 -403.93,-529.16 -523.87,-867.83 -119.95,-338.67 -179.92,-709.08 -179.92,-1111.25 0,-409.22 61.74,-783.17 185.21,-1121.83 123.47,-338.67 301.62,-627.95 534.46,-867.84 232.83,-239.88 513.29,-425.09 841.37,-555.62 328.08,-130.53 700.26,-195.79 1116.54,-195.79 409.22,0 776.11,65.26 1100.67,195.79 324.55,130.53 601.48,313.97 830.79,550.33 229.31,236.36 405.69,523.88 529.17,862.54 123.47,338.67 185.21,716.14 185.21,1132.42 0,416.28 -61.74,791.99 -185.21,1127.13 -123.48,335.13 -299.86,622.65 -529.17,862.54 -229.31,239.89 -508,425.09 -836.08,555.62 -328.09,130.53 -693.21,195.79 -1095.38,195.79zm5609.17 -1121.83c345.72,0 627.95,-146.4 846.67,-439.21 218.72,-292.8 328.08,-672.04 328.08,-1137.71 0,-1072.44 -395.11,-1608.66 -1185.33,-1608.66 -769.06,0 -1153.58,564.44 -1153.58,1693.33 0,444.5 111.12,804.33 333.37,1079.5 222.25,275.17 499.18,412.75 830.79,412.75zm-2465.91 984.25l0 -7112 1354.66 0 0 2582.33c388.06,-543.27 903.11,-814.91 1545.17,-814.91 338.67,0 640.29,65.26 904.87,195.79 264.59,130.53 488.6,315.74 672.05,555.62 183.44,239.89 322.79,523.88 418.04,851.96 95.25,328.09 142.87,689.68 142.87,1084.79 0,437.45 -56.44,829.03 -169.33,1174.75 -112.89,345.73 -268.11,638.53 -465.67,878.42 -197.55,239.89 -435.68,423.33 -714.37,550.33 -278.7,127 -580.32,190.5 -904.88,190.5 -649.11,0 -1132.41,-257.52 -1449.91,-772.58l-10.59 635 -1322.91 0zm8678.33 -3630.08c-35.28,-254 -127,-432.15 -275.16,-534.46 -148.17,-102.31 -381,-153.46 -698.5,-153.46 -261.06,0 -462.14,33.52 -603.25,100.54 -141.11,67.03 -211.67,178.16 -211.67,333.38 0,155.22 70.56,273.4 211.67,354.54 141.11,81.14 352.77,160.51 635,238.12 296.33,84.67 578.55,160.52 846.66,227.55 268.11,67.02 504.47,139.34 709.09,216.95 275.16,112.89 486.83,266.35 635,460.38 148.16,194.03 222.25,460.37 222.25,799.04 0,543.28 -192.27,966.61 -576.8,1270 -384.52,303.39 -950.73,455.08 -1698.62,455.08 -804.33,0 -1419.93,-169.33 -1846.79,-508 -426.86,-338.66 -647.35,-772.58 -661.46,-1301.75l1418.17 0c0,246.95 95.25,437.45 285.75,571.5 190.5,134.06 455.08,201.09 793.75,201.09 246.94,0 462.13,-40.57 645.58,-121.71 183.44,-81.14 275.17,-220.49 275.17,-418.04 0,-183.45 -82.91,-313.98 -248.71,-391.59 -165.81,-77.61 -361.6,-144.63 -587.38,-201.08 -437.44,-105.83 -790.22,-201.08 -1058.33,-285.75 -268.11,-84.67 -493.89,-186.97 -677.33,-306.92 -246.95,-155.22 -418.05,-331.61 -513.3,-529.16 -95.25,-197.56 -142.87,-412.75 -142.87,-645.59 0,-218.72 38.81,-423.33 116.42,-613.83 77.61,-190.5 204.61,-354.54 381,-492.12 176.39,-137.59 403.93,-245.18 682.62,-322.8 278.7,-77.61 615.6,-116.41 1010.71,-116.41 754.94,0 1310.57,144.64 1666.87,433.91 356.31,289.28 552.1,716.14 587.38,1280.59l-1322.92 0z"/>
  <line class="fil1 str0" x1="39329.08" y1="2028.37" x2="26279.21" y2= "2083.75" />
  <line class="fil1 str0" x1="23487.39" y1="2028.37" x2="3664.53" y2= "2083.75" />
  <path class="fil0" d="M26300.37 8435.36l-3005.66 -4720.17 0 4720.17 -1365.25 0 0 -7027.33 1555.75 0 2794 4519.08 0 -4519.08 1375.83 0 0 7027.33 -1354.67 0zm1883.84 0l0 -7027.33 5164.66 0 0 1227.67 -3735.91 0 0 1502.83 3439.58 0 0 1238.25 -3439.58 0 0 1809.75 3905.25 0 0 1248.83 -5334 0zm7545.91 0l0 -5799.66 -2116.67 0 0 -1227.67 5715 0 0 1227.67 -2127.25 0 0 5799.66 -1471.08 0z"/>
  <rect class="fil2 str1" x="11095.08" y="1307.86" width="296.33" height="1519.71"/>
  <rect class="fil2 str1" x="12766.42" y="1293.83" width="296.33" height="1549.78"/>
 </g>
</svg>
